<svg xmlns="http://www.w3.org/2000/svg" xmlns:xlink="http://www.w3.org/1999/xlink" viewBox="0,0,255.9933,255.9933" width="32px" height="32px" fill-rule="nonzero"><g fill="#ffffff" fill-rule="nonzero" stroke="none" stroke-width="1" stroke-linecap="butt" stroke-linejoin="miter" stroke-miterlimit="10" stroke-dasharray="" stroke-dashoffset="0" font-family="none" font-weight="none" font-size="none" text-anchor="none" style="mix-blend-mode: normal"><g transform="scale(8,8)"><path d="M16,4c-5.51172,0 -10,4.48828 -10,10v4c0,5.51172 4.48828,10 10,10c5.51172,0 10,-4.48828 10,-10v-4c0,-5.51172 -4.48828,-10 -10,-10zM15,6.0625v6.9375h-6.9375c0.45313,-3.625 3.3125,-6.48437 6.9375,-6.9375zM17,6.0625c3.625,0.45313 6.48438,3.3125 6.9375,6.9375h-6.9375zM8,15h16v3c0,4.42969 -3.57031,8 -8,8c-4.42969,0 -8,-3.57031 -8,-8z"></path></g></g></svg>